<svg width="20" height="20" viewBox="0 0 20 20" fill="none" xmlns="http://www.w3.org/2000/svg">
<path d="M2.23172 0.0281395C1.14052 0.21205 0.201847 1.17073 0.033668 2.2781C0.00629008 2.46201 -0.00544332 4.96632 0.00237895 10.1784L0.0141123 17.8087L0.123624 18.1218C0.432604 18.9944 1.01927 19.5813 1.89146 19.8904L2.20435 20H10.0071H17.8098L18.1227 19.8904C19.0261 19.5696 19.648 18.92 19.9296 18.0044C19.9961 17.7813 20 17.4253 20 9.98277V2.19593L19.8905 1.88289C19.5815 1.0103 18.9948 0.423351 18.1227 0.114225L17.8098 0.00466165L10.1244 0.000748665C5.78694 -0.00316432 2.34906 0.00857463 2.23172 0.0281395ZM11.1608 4.11329C12.9834 4.45372 14.5792 5.58849 15.4826 7.18498C16.7107 9.3606 16.4604 12.1193 14.8608 14.021C14.1881 14.8231 13.355 15.4335 12.4085 15.8209C11.9392 16.0127 11.7632 16.0283 11.6341 15.8992L11.5324 15.7975V14.7253C11.5324 13.5318 11.5128 13.4027 11.2821 13.0623L11.1491 12.8666L11.3525 12.8392C12.4906 12.6866 13.2611 12.221 13.6405 11.4462C13.8361 11.0471 13.9065 10.7771 13.9573 10.2488C14.0003 9.77929 13.9573 9.32538 13.8321 8.99278C13.7539 8.77365 13.4567 8.27279 13.3785 8.22584C13.3511 8.21019 13.3589 8.1241 13.398 7.97541C13.5114 7.54498 13.3941 6.5863 13.222 6.55108C12.96 6.4963 12.3459 6.70369 11.8492 7.0089L11.5715 7.18107L11.2273 7.10281C10.5585 6.94629 9.32652 6.96194 8.67336 7.1302L8.45042 7.18498L8.14927 7.00107C7.62909 6.68804 6.93291 6.46891 6.7569 6.56282C6.7217 6.57847 6.66304 6.70369 6.62784 6.83282C6.52615 7.19672 6.5105 7.5528 6.5809 7.88932C6.63566 8.14758 6.63566 8.18671 6.58481 8.26105C6.11548 8.89104 5.99032 9.32147 6.02943 10.1197C6.07637 10.9806 6.30321 11.5519 6.79602 12.0371C7.01504 12.2562 7.17148 12.3736 7.39442 12.4792C7.71513 12.6358 8.2666 12.7962 8.6186 12.8392C8.73594 12.8549 8.83372 12.8745 8.83372 12.8823C8.83372 12.8901 8.77505 12.9723 8.70465 13.0662C8.63034 13.1601 8.55211 13.3245 8.52474 13.4301C8.49736 13.5358 8.46607 13.6414 8.46216 13.6688C8.43869 13.7471 8.05149 13.8371 7.73469 13.8371C7.46873 13.8371 7.40224 13.8214 7.18322 13.7079C6.97593 13.6023 6.89379 13.5279 6.66304 13.2188C6.35406 12.8119 6.25237 12.7258 5.97468 12.6201C5.75174 12.534 5.55228 12.5262 5.4545 12.5966C5.35672 12.6671 5.40365 12.7492 5.66961 12.941C5.9473 13.1405 6.13112 13.3753 6.29539 13.7471C6.59655 14.4083 7.05806 14.7018 7.79727 14.7018C7.99282 14.7018 8.21967 14.6901 8.29789 14.6783L8.4426 14.651V15.2301C8.4426 15.7701 8.43869 15.8131 8.35656 15.8992C8.20011 16.0635 7.89896 15.9931 7.14802 15.6175C4.80916 14.4436 3.47155 11.9432 3.80791 9.36843C4.15209 6.72325 6.24455 4.55937 8.87283 4.11721C9.07621 4.08199 9.28741 4.04677 9.34216 4.03895C9.56901 3.99982 10.8245 4.05069 11.1608 4.11329Z" fill="#323232"/>
</svg>
