<svg width="20" height="21" viewBox="0 0 20 21" fill="none" xmlns="http://www.w3.org/2000/svg">
<path d="M3.53412 0.0625097C1.88235 0.420157 0.588235 1.64369 0.108235 3.30957L0 3.68133V10.0107V16.3402L0.108235 16.7166C0.555294 18.279 1.72706 19.446 3.29882 19.9025L3.67059 20.0107H10.0235H16.3765L16.7906 19.879C17.5906 19.6296 18.2212 19.2437 18.7718 18.6696C19.3224 18.0907 19.6659 17.4931 19.8918 16.7119L20 16.3402V10.0107V3.68133L19.8918 3.30957C19.4447 1.75663 18.3341 0.62251 16.7906 0.14251L16.3765 0.010745L10.1176 0.0013332C4.73412 -0.00337268 3.81176 0.0013332 3.53412 0.0625097ZM17.2424 2.07663C17.4682 2.19427 17.7082 2.42957 17.8447 2.66016C17.9435 2.82486 17.9718 2.95192 17.9906 3.23898C18.0094 3.58722 18 3.63427 17.8635 3.91663C17.5529 4.54251 16.8988 4.82016 16.2118 4.6178C15.8682 4.51427 15.4635 4.11427 15.3412 3.75663C15.1247 3.0978 15.4824 2.2931 16.0941 2.0578C16.4518 1.91663 16.9459 1.92604 17.2424 2.07663ZM10.9835 3.59192C11.5294 3.67192 12.4094 3.94486 12.8753 4.18016C14.6824 5.08369 15.9435 6.72604 16.3812 8.74016C16.5035 9.30486 16.5035 10.7166 16.3812 11.2813C15.8118 13.9025 13.8871 15.8225 11.2706 16.3919C10.7671 16.5002 9.35059 16.5143 8.84706 16.4154C7.33647 16.119 5.96235 15.3143 5.01647 14.1707C4.01412 12.9613 3.50588 11.559 3.50588 10.0107C3.50588 6.70721 5.95294 3.96369 9.27059 3.54957C9.63765 3.50251 10.5318 3.52604 10.9835 3.59192Z" fill="#323232"/>
<path d="M9.21402 6.41551C8.8046 6.50493 8.27284 6.73081 7.94343 6.9614C5.97166 8.3261 5.76931 11.1214 7.5199 12.7214C8.23049 13.3661 9.03519 13.6814 9.9999 13.6814C11.0399 13.6814 11.8399 13.3426 12.5881 12.599C13.007 12.1802 13.2234 11.8602 13.4211 11.3755C13.7552 10.5426 13.7552 9.47904 13.4211 8.6461C12.9599 7.51669 11.9434 6.66022 10.7528 6.41081C10.3434 6.3261 9.60931 6.3261 9.21402 6.41551Z" fill="#323232"/>
</svg>
