<svg width="20" height="20" viewBox="0 0 20 20" fill="none" xmlns="http://www.w3.org/2000/svg">
<path d="M2.23172 0.0281134C1.14052 0.212024 0.201847 1.17071 0.033668 2.27808C0.00629008 2.46199 -0.00544332 4.9663 0.00237895 10.1784L0.0141123 17.8087L0.123624 18.1218C0.432604 18.9944 1.01927 19.5813 1.89146 19.8904L2.20435 20H10.0071H17.8098L18.1227 19.8904C19.0261 19.5696 19.648 18.92 19.9296 18.0044C19.9961 17.7813 20 17.4253 20 9.98275V2.19591L19.8905 1.88287C19.5815 1.01027 18.9948 0.423325 18.1227 0.114199L17.8098 0.00463547L10.1244 0.000722485C5.78694 -0.0031905 2.34906 0.00854846 2.23172 0.0281134ZM5.91992 3.80023C6.41664 3.93327 6.81948 4.26979 7.04633 4.74718C7.20277 5.08369 7.23797 5.55716 7.13237 5.91716C6.92117 6.64497 6.26019 7.14584 5.52099 7.14584C4.84045 7.14584 4.24205 6.7741 3.96436 6.17933C3.35031 4.88413 4.53538 3.44024 5.91992 3.80023ZM13.5936 7.77583C14.9585 7.92843 15.776 8.71103 16.0654 10.1432C16.1984 10.8006 16.2258 11.3914 16.2258 13.7353V15.997L16.0928 16.1301L15.9598 16.2631H14.8881C13.8947 16.2631 13.8126 16.2592 13.6953 16.1848C13.6249 16.1418 13.5584 16.0674 13.5466 16.0205C13.5388 15.9696 13.5232 14.9014 13.5153 13.6414C13.5036 11.6223 13.4958 11.3249 13.4371 11.1175C13.3315 10.7497 13.1868 10.4875 12.9952 10.3193C12.7605 10.1119 12.5336 10.0414 12.1191 10.0414C11.8179 10.0414 11.7514 10.0571 11.5402 10.1588C11.2547 10.3036 11.0513 10.5188 10.9027 10.8397C10.6563 11.3719 10.6602 11.3366 10.6367 13.8057L10.6133 16.0635L10.5233 16.1535C10.4373 16.2435 10.4177 16.2435 9.38127 16.2553C8.22358 16.267 8.14536 16.2553 8.0554 16.0401C8.02411 15.9579 8.01238 14.9092 8.0202 12.0058L8.03193 8.07713L8.14145 7.98322L8.25096 7.8893H9.32652C9.9875 7.8893 10.4334 7.90496 10.4764 7.92843C10.6055 7.99887 10.6485 8.128 10.6719 8.50756L10.6915 8.87146L10.844 8.67582C11.372 7.9793 12.4046 7.64279 13.5936 7.77583ZM6.68259 7.99887C6.7569 8.07322 6.79993 8.16713 6.81948 8.28452C6.83122 8.37843 6.83904 10.1471 6.83122 12.2132C6.81948 15.7544 6.81557 15.9774 6.74908 16.0714C6.62393 16.2553 6.53788 16.267 5.43885 16.2553L4.41414 16.2435L4.30854 16.134L4.19902 16.0283L4.18729 12.1427C4.18338 10.0101 4.18729 8.218 4.19902 8.17104C4.21076 8.12017 4.26942 8.03409 4.32418 7.98322L4.42587 7.8893H5.49752H6.57308L6.68259 7.99887Z" fill="#323232"/>
</svg>
