<svg width="439" height="129" viewBox="0 0 439 129" fill="none" xmlns="http://www.w3.org/2000/svg">
<path d="M104.093 15.3024C103.769 15.4808 103.028 16.6067 98.046 24.4226C94.916 29.3205 92.0916 33.7869 91.7675 34.3405C90.0543 37.2304 88.9061 40.2142 88.3227 43.2262C88.1004 44.3709 88.0819 44.7274 88.0726 46.6603C88.0634 48.5555 88.0911 48.9497 88.2764 49.8786C89.295 54.9548 92.5084 59.0551 97.2959 61.3914C103.306 64.319 110.584 63.4652 115.715 59.2241C121.289 54.617 122.938 47.7206 120.345 39.8577C119.817 38.2532 119.086 36.5736 118.28 35.1193C117.659 33.9839 106.186 15.9311 105.862 15.5652C105.408 15.0678 104.686 14.9552 104.093 15.3024ZM109.825 27.2376C115.854 36.6955 115.492 36.1231 116.363 37.9341C117.965 41.2838 118.66 44.2488 118.548 47.3452C118.474 49.5221 118.113 50.9763 117.196 52.778C115.391 56.3247 111.733 59.0082 107.529 59.862C106.677 60.0309 106.186 60.0685 104.778 60.0685C103.278 60.0685 102.917 60.0404 101.889 59.8151C100.454 59.5055 99.6665 59.2241 98.3423 58.5673C95.1105 56.944 92.5639 54.0446 91.5545 50.8356C91.0823 49.3344 90.9526 48.246 91.0082 46.3506C91.0915 43.5357 91.7397 41.068 93.1936 38.0279C94.1567 36.0106 93.4066 37.221 104.287 20.1628C104.565 19.7312 104.825 19.4122 104.862 19.4591C104.899 19.5061 107.14 23.0058 109.825 27.2376Z" fill="#323232"/>
<path d="M103.296 42.8603V44.4554H101.722H100.139L100.166 45.9285L100.194 47.411L101.75 47.4391L103.296 47.4579V49.0061V50.5543H104.778H106.26V49.0061V47.4579L107.815 47.4391L109.362 47.411L109.39 45.9285L109.418 44.4554H107.834H106.26V42.8603V41.2651H104.778H103.296V42.8603Z" fill="#323232"/>
<path d="M113.668 44.6621C113.122 45.0467 113.001 45.2907 112.918 46.304C112.705 48.6404 111.918 50.3669 110.372 51.8775C108.927 53.285 107.519 53.9136 105.214 54.1669C104.213 54.2796 104.084 54.3171 103.834 54.5611C102.898 55.443 103.278 56.8598 104.528 57.1602C104.917 57.254 106.612 57.0475 107.612 56.7942C108.594 56.5409 110.103 55.8465 110.964 55.2555C112.974 53.8761 114.529 51.8119 115.27 49.5411C115.687 48.2745 115.826 47.4675 115.835 46.3135C115.844 45.5347 115.817 45.3751 115.65 45.1406C115.326 44.6902 114.891 44.4556 114.409 44.4556C114.113 44.4556 113.881 44.5213 113.668 44.6621Z" fill="#323232"/>
<path d="M39.0084 30.2035C38.5773 28.6122 37.946 27.1223 37.1145 25.7338C36.2831 24.3297 35.2515 23.105 34.0198 22.0598C32.8034 20.999 31.3946 20.1721 29.7932 19.5793C28.2074 18.9863 26.4368 18.6899 24.4813 18.6899C21.402 18.6899 18.6459 19.5012 16.2131 21.1238C13.7804 22.7462 11.8557 25.0863 10.4392 28.1441C9.03808 31.202 8.33752 34.8838 8.33752 39.1897C8.33752 43.4799 9.04579 47.1539 10.4623 50.2117C11.8788 53.2694 13.8189 55.6174 16.2823 57.2554C18.7613 58.878 21.5944 59.6893 24.7816 59.6893C27.6916 59.6893 30.2628 59.034 32.4955 57.7236C34.728 56.413 36.4679 54.5409 37.715 52.1071C38.9775 49.6734 39.5935 46.7795 39.5627 43.4253L40.9484 43.8698H25.7978V39.9384H43.766V43.8698C43.766 47.9573 42.9501 51.491 41.3179 54.4707C39.6859 57.4505 37.4456 59.7516 34.5972 61.374C31.7487 62.9967 28.4768 63.8079 24.7816 63.8079C20.6551 63.8079 17.0445 62.8016 13.9498 60.7891C10.8549 58.7609 8.44529 55.906 6.72084 52.2242C5.01176 48.5268 4.15723 44.1819 4.15723 39.1897C4.15723 35.4298 4.64994 32.0365 5.63534 29.01C6.62075 25.9834 8.01418 23.3937 9.81564 21.2407C11.6325 19.0878 13.7804 17.4418 16.2593 16.303C18.7382 15.1486 21.4789 14.5713 24.4813 14.5713C27.068 14.5713 29.4315 14.9848 31.5716 15.8116C33.7272 16.6384 35.6211 17.7774 37.2531 19.2282C38.9006 20.6635 40.2478 22.325 41.2949 24.2128C42.3573 26.0848 43.0732 28.0817 43.4427 30.2035H39.0084ZM54.4882 63.1526V15.2266H58.8071V59.2212H81.3484V63.1526H54.4882Z" fill="#323232"/>
<path d="M167.981 31.5765H163.64C163.316 29.9384 162.731 28.4251 161.884 27.0367C161.053 25.6326 160.006 24.4079 158.743 23.3626C157.48 22.3174 156.048 21.5062 154.448 20.9289C152.847 20.3517 151.114 20.063 149.25 20.063C146.264 20.063 143.539 20.8509 141.075 22.4265C138.628 24.0023 136.664 26.3191 135.186 29.3767C133.723 32.4189 132.992 36.1475 132.992 40.5627C132.992 45.0089 133.723 48.7532 135.186 51.7953C136.664 54.8375 138.628 57.1464 141.075 58.7221C143.539 60.2822 146.264 61.0623 149.25 61.0623C151.114 61.0623 152.847 60.7736 154.448 60.1964C156.048 59.6191 157.48 58.8157 158.743 57.7861C160.006 56.7407 161.053 55.5161 161.884 54.1121C162.731 52.7079 163.316 51.1869 163.64 49.5488H167.981C167.596 51.7485 166.873 53.8 165.811 55.7034C164.763 57.5911 163.425 59.2447 161.792 60.6644C160.175 62.0841 158.312 63.1918 156.203 63.9875C154.093 64.7831 151.776 65.1809 149.25 65.1809C145.279 65.1809 141.752 64.1746 138.674 62.1621C135.594 60.134 133.177 57.279 131.421 53.5973C129.681 49.9155 128.812 45.5706 128.812 40.5627C128.812 35.5547 129.681 31.21 131.421 27.528C133.177 23.8462 135.594 20.9991 138.674 18.9865C141.752 16.9585 145.279 15.9443 149.25 15.9443C151.776 15.9443 154.093 16.3422 156.203 17.1379C158.312 17.9179 160.175 19.0256 161.792 20.4608C163.425 21.8805 164.763 23.5342 165.811 25.4219C166.873 27.3096 167.596 29.3612 167.981 31.5765ZM216.904 40.5627C216.904 45.5549 216.026 49.8998 214.271 53.5973C212.515 57.279 210.098 60.134 207.018 62.1621C203.955 64.1746 200.429 65.1809 196.442 65.1809C192.453 65.1809 188.919 64.1746 185.841 62.1621C182.776 60.134 180.367 57.279 178.611 53.5973C176.871 49.8998 176.001 45.5549 176.001 40.5627C176.001 35.5704 176.871 31.2333 178.611 27.5515C180.367 23.8541 182.784 20.9991 185.864 18.9865C188.942 16.9585 192.469 15.9443 196.442 15.9443C200.429 15.9443 203.955 16.9585 207.018 18.9865C210.098 20.9991 212.515 23.8541 214.271 27.5515C216.026 31.2333 216.904 35.5704 216.904 40.5627ZM212.701 40.5627C212.701 36.2725 211.992 32.5983 210.575 29.5405C209.159 26.4672 207.227 24.1193 204.779 22.4968C202.33 20.8742 199.551 20.063 196.442 20.063C193.346 20.063 190.575 20.8742 188.126 22.4968C185.678 24.1193 183.739 26.4594 182.307 29.5172C180.89 32.575 180.182 36.2568 180.182 40.5627C180.182 44.853 180.89 48.5269 182.307 51.5847C183.723 54.6424 185.655 56.9905 188.103 58.6285C190.552 60.2511 193.331 61.0623 196.442 61.0623C199.551 61.0623 202.33 60.2511 204.779 58.6285C207.242 57.006 209.182 54.6659 210.598 51.6081C212.015 48.5348 212.716 44.853 212.701 40.5627ZM264.186 16.5996V64.5257H259.983L232.037 24.3922H231.667V64.5257H227.349V16.5996H231.529L259.567 56.7799H259.937V16.5996H264.186ZM273.898 20.531V16.5996H308.194V20.531H293.206V64.5257H288.886V20.531H273.898ZM317.917 64.5257V16.5996H333.183C336.541 16.5996 339.343 17.2159 341.591 18.4483C343.853 19.6653 345.555 21.3579 346.695 23.5265C347.849 25.6793 348.426 28.1521 348.426 30.9447C348.426 33.7373 347.849 36.2022 346.695 38.3395C345.555 40.4769 343.862 42.1462 341.614 43.3475C339.366 44.5487 336.579 45.1494 333.254 45.1494H320.25V41.1477H333.137C335.602 41.1477 337.649 40.7343 339.281 39.9074C340.928 39.0805 342.153 37.9028 342.954 36.3738C343.77 34.8449 344.177 33.0352 344.177 30.9447C344.177 28.8541 343.77 27.0288 342.954 25.4687C342.137 23.893 340.905 22.6761 339.258 21.8181C337.626 20.96 335.563 20.531 333.068 20.531H322.237V64.5257H317.917ZM338.772 42.9028L350.413 64.5257H345.425L333.9 42.9028H338.772ZM397.724 40.5627C397.724 45.5549 396.846 49.8998 395.092 53.5973C393.336 57.279 390.919 60.134 387.839 62.1621C384.775 64.1746 381.25 65.1809 377.262 65.1809C373.273 65.1809 369.741 64.1746 366.661 62.1621C363.596 60.134 361.187 57.279 359.433 53.5973C357.691 49.8998 356.822 45.5549 356.822 40.5627C356.822 35.5704 357.691 31.2333 359.433 27.5515C361.187 23.8541 363.604 20.9991 366.684 18.9865C369.764 16.9585 373.29 15.9443 377.262 15.9443C381.25 15.9443 384.775 16.9585 387.839 18.9865C390.919 20.9991 393.336 23.8541 395.092 27.5515C396.846 31.2333 397.724 35.5704 397.724 40.5627ZM393.521 40.5627C393.521 36.2725 392.813 32.5983 391.396 29.5405C389.98 26.4672 388.048 24.1193 385.599 22.4968C383.151 20.8742 380.372 20.063 377.262 20.063C374.168 20.063 371.395 20.8742 368.947 22.4968C366.499 24.1193 364.56 26.4594 363.127 29.5172C361.71 32.575 361.003 36.2568 361.003 40.5627C361.003 44.853 361.71 48.5269 363.127 51.5847C364.543 54.6424 366.476 56.9905 368.924 58.6285C371.372 60.2511 374.151 61.0623 377.262 61.0623C380.372 61.0623 383.151 60.2511 385.599 58.6285C388.062 57.006 390.003 54.6659 391.42 51.6081C392.836 48.5348 393.536 44.853 393.521 40.5627ZM408.17 64.5257V16.5996H412.488V60.5943H435.03V64.5257H408.17Z" fill="#323232"/>
<path d="M8.20455 120V90.9091H17.6506C19.4119 90.9091 20.8987 91.2216 22.1108 91.8466C23.3229 92.4716 24.2415 93.3475 24.8665 94.4744C25.5009 95.6013 25.8182 96.9129 25.8182 98.4091C25.8182 99.5833 25.6288 100.625 25.25 101.534C24.8712 102.443 24.3409 103.196 23.6591 103.793C22.9867 104.38 22.196 104.787 21.2869 105.014V105.185C22.2907 105.26 23.2235 105.611 24.0852 106.236C24.947 106.851 25.6383 107.689 26.1591 108.75C26.6894 109.811 26.9545 111.046 26.9545 112.457C26.9545 113.944 26.6326 115.256 25.9886 116.392C25.3542 117.519 24.4025 118.404 23.1335 119.048C21.8646 119.683 20.2926 120 18.4176 120H8.20455ZM9.98011 118.352H18.4176C20.6051 118.352 22.286 117.803 23.4602 116.705C24.6439 115.606 25.2358 114.19 25.2358 112.457C25.2358 111.236 24.947 110.142 24.3693 109.176C23.8011 108.21 23.0104 107.448 21.9972 106.889C20.9839 106.321 19.8097 106.037 18.4744 106.037H9.98011V118.352ZM9.98011 104.418H18.2614C19.5019 104.418 20.553 104.148 21.4148 103.608C22.286 103.068 22.9489 102.344 23.4034 101.435C23.8674 100.526 24.0994 99.517 24.0994 98.4091C24.0994 96.6098 23.5407 95.1847 22.4233 94.1335C21.3059 93.0824 19.715 92.5568 17.6506 92.5568H9.98011V104.418ZM32.8246 120H30.9496L41.4467 90.9091H43.4922L53.9893 120H52.1143L42.5405 93.196H42.3984L32.8246 120ZM35.4808 109.048H49.4581V110.696H35.4808V109.048ZM80.2074 100H78.3892C78.1998 99.0152 77.8447 98.0634 77.3239 97.1449C76.803 96.2169 76.1307 95.3835 75.3068 94.6449C74.4924 93.8968 73.5455 93.3049 72.4659 92.8693C71.3864 92.4337 70.1932 92.2159 68.8864 92.2159C66.9735 92.2159 65.2121 92.7273 63.6023 93.75C62.0019 94.7633 60.7188 96.2547 59.7528 98.2244C58.7964 100.194 58.3182 102.604 58.3182 105.455C58.3182 108.324 58.7964 110.743 59.7528 112.713C60.7188 114.683 62.0019 116.174 63.6023 117.188C65.2121 118.191 66.9735 118.693 68.8864 118.693C70.1932 118.693 71.3864 118.48 72.4659 118.054C73.5455 117.618 74.4924 117.031 75.3068 116.293C76.1307 115.545 76.803 114.706 77.3239 113.778C77.8447 112.85 78.1998 111.894 78.3892 110.909H80.2074C79.9991 112.083 79.5966 113.234 79 114.361C78.4129 115.488 77.6364 116.51 76.6705 117.429C75.714 118.338 74.5824 119.062 73.2756 119.602C71.9782 120.133 70.5152 120.398 68.8864 120.398C66.4621 120.398 64.3267 119.782 62.4801 118.551C60.6335 117.311 59.1847 115.568 58.1335 113.324C57.0919 111.08 56.571 108.456 56.571 105.455C56.571 102.453 57.0919 99.8295 58.1335 97.5852C59.1847 95.3409 60.6335 93.6032 62.4801 92.3722C64.3267 91.1316 66.4621 90.5114 68.8864 90.5114C70.5152 90.5114 71.9782 90.7812 73.2756 91.321C74.5824 91.8513 75.714 92.571 76.6705 93.4801C77.6364 94.3797 78.4129 95.393 79 96.5199C79.5966 97.6468 79.9991 98.8068 80.2074 100ZM87.0327 120V90.9091H88.8082V107.798H89.0071L104.348 90.9091H106.706L94.0781 104.673L106.592 120H104.376L92.9418 105.952L88.8082 110.526V120H87.0327ZM118.268 104.631V106.278H106.791V104.631H118.268ZM125.665 120V90.9091H141.859V92.5568H127.441V104.616H140.992V106.264H127.441V118.352H142.2V120H125.665ZM171.45 90.9091V120H169.717L151.166 94.1335H150.996V120H149.22V90.9091H150.967L169.518 116.804H169.689V90.9091H171.45ZM187.913 120H179.845V90.9091H188.538C191.266 90.9091 193.6 91.4867 195.541 92.642C197.482 93.7973 198.969 95.4545 200.001 97.6136C201.043 99.7633 201.559 102.344 201.55 105.355C201.54 108.433 201 111.065 199.93 113.253C198.86 115.431 197.312 117.102 195.286 118.267C193.259 119.422 190.802 120 187.913 120ZM181.621 118.352H187.842C190.437 118.352 192.625 117.836 194.405 116.804C196.185 115.762 197.53 114.271 198.439 112.33C199.357 110.388 199.812 108.063 199.803 105.355C199.803 102.685 199.362 100.398 198.482 98.4943C197.601 96.5814 196.318 95.1136 194.632 94.0909C192.956 93.0682 190.901 92.5568 188.467 92.5568H181.621V118.352Z" fill="black"/>
</svg>
